# xmcd
#
# Track frame offsets:
#	150
#	1232
#	21837
#	38534
#	57180
#	75816
#	93660
#	110482
#	127693
#	144588
#	161484
#	178670
#
# Disc length: 2587 seconds
#
# Revision: 0
# Processed by: cddbd v1.5.2PL0 Copyright (c) Steve Scherf et al.
# Submitted via: EasyCDDAExtractor 10.0.2.1
#
DISCID=840a190c
DTITLE=James Day - Better Days
DYEAR=2006
DGENRE=Soul
TTITLE0=Remember When (intro)
TTITLE1=Better Days
TTITLE2=Don't Waste The Pretty
TTITLE3=She's Not The Girl
TTITLE4=Love's Taking Over
TTITLE5=One Good Thing
TTITLE6=Brick By Brick
TTITLE7=Can't Augue Like This
TTITLE8=Remember When
TTITLE9=Will You Still Believe
TTITLE10=Better Days (Steppers Mix)
TTITLE11=Don't Waste The Pretty (Bonus Mix)
EXTD=
EXTT0=
EXTT1=
EXTT2=
EXTT3=
EXTT4=
EXTT5=
EXTT6=
EXTT7=
EXTT8=
EXTT9=
EXTT10=
EXTT11=
PLAYORDER=
